# xmcd
#
# Track frame offsets: 
#        150
#        19828
#        37586
#        52495
#        69016
#        82465
#        98117
#        112852
#        127961
#        148254
#        162085
#        176971
#        193739
#        212451
#        228990
#        244973
#
# Disc length: 3577 seconds
#
# Revision: 3
# Processed by: cddbd v1.5.2PL0 Copyright (c) Steve Scherf et al.
# Submitted via: ExactAudioCopy v1.0b1
#
DISCID=df0df710
DTITLE=Rosanne Cash - The Very Best of Roseanne Cash
DYEAR=2005
DGENRE=Country
TTITLE0=The Wheel
TTITLE1=The Way We Make A Broken Heart
TTITLE2=Seven Year Ache
TTITLE3=Hold On
TTITLE4=On The Surface
TTITLE5=No Memories Hangin' Around
TTITLE6=My Baby Thinks He's A Train
TTITLE7=I Don't Know Why You Don't Want Me
TTITLE8=Blue Moon With Heartache
TTITLE9=Western Wall
TTITLE10=Tennessee Flat Top Box
TTITLE11=September When It Comes
TTITLE12=Sleeping in Paris
TTITLE13=Never Be You (alternate)
TTITLE14=What We Really Want
TTITLE15=7th Avenue
EXTD=
EXTT0=
EXTT1=
EXTT2=
EXTT3=
EXTT4=
EXTT5=
EXTT6=
EXTT7=
EXTT8=
EXTT9=
EXTT10=
EXTT11=
EXTT12=
EXTT13=
EXTT14=
EXTT15=
PLAYORDER=
